<svg xmlns="http://www.w3.org/2000/svg" xmlns:xlink="http://www.w3.org/1999/xlink" viewBox="0 0 500 500"><defs><clipPath id="freepik--clip-path--inject-9"><path d="M168.46,290.86c-2.64-4.71-8.38-9.56-17.37-4.38-11.64,6.7-46.25,75.81-48.63,86.3S148.7,390,167.77,390a347.16,347.16,0,0,0,35.35-1.87l3.75,2.34s0,9.06,3.34,10,13.83,1,17.16-.95,2.39-7.15,2.39-7.15,2.38,10.49,6.19,11.44a8.15,8.15,0,0,0,3.86.06,1.78,1.78,0,0,0,.91-2.92l-1-1.19-6.59-14.54s-1.82-7.86-4.2-7.86-21.54-.25-21.54-.25-32.42-3.81-46.25-7.63S140,360.33,140,360.33l26.52-43.26" style="fill:#fff;stroke:#263238;stroke-linecap:round;stroke-linejoin:round;stroke-width:1.1326043605804443px"></path></clipPath><clipPath id="freepik--clip-path-2--inject-9"><path d="M186.7,266.9s-1.74,19.67-.58,27.77,5.78,33.55,9.25,26.61S211,291.78,211,291.78,190.17,276.16,186.7,266.9Z" style="fill:#fff;stroke:#263238;stroke-linecap:round;stroke-linejoin:round;stroke-width:1.1326043605804443px"></path></clipPath><clipPath id="freepik--clip-path-3--inject-9"><path d="M187.27,265.16s-1.15-7.52-6.36-4.62,2.31,13.88,2.31,13.88a42.06,42.06,0,0,0,8.68,21.41C200,306.24,214,307.65,222,301c9-7.48,13.3-41.65,13.3-41.65s3.47-4.63-4-16.2-33-11.57-34.71-6.94,5.21,13.88,3.47,17.35-6.94-.57-8.1,5.79S189.59,270.37,187.27,265.16Z" style="fill:#fff;stroke:#263238;stroke-linecap:round;stroke-linejoin:round;stroke-width:1.1326043605804443px"></path></clipPath></defs><g id="freepik--background-simple--inject-9"><path d="M381.26,97.71c-27.35-18.92-60.69-26.43-97-11.51C248.34,100.94,229.38,137,198.18,158c-33.19,22.36-75.95,24-111.79,41.17-25.33,12.11-42.71,35-46.86,62.89-8.12,54.51,20.9,110.35,71.35,133.24,31.47,14.27,68.14,14.18,99.92.93,24.4-10.18,45.64-26.84,69.95-37.46C323,340.35,372,342.15,412.3,318.46c42.7-25.07,48.28-71,38.6-113.74C442.11,165.91,416.72,122.23,381.26,97.71Z" style="fill:#90CAF9"></path><path d="M381.26,97.71c-27.35-18.92-60.69-26.43-97-11.51C248.34,100.94,229.38,137,198.18,158c-33.19,22.36-75.95,24-111.79,41.17-25.33,12.11-42.71,35-46.86,62.89-8.12,54.51,20.9,110.35,71.35,133.24,31.47,14.27,68.14,14.18,99.92.93,24.4-10.18,45.64-26.84,69.95-37.46C323,340.35,372,342.15,412.3,318.46c42.7-25.07,48.28-71,38.6-113.74C442.11,165.91,416.72,122.23,381.26,97.71Z" style="fill:#fff;opacity:0.8"></path></g><g id="freepik--Chair--inject-9"><path d="M89,296.84h49s14.28,1.87,8.38,15.83h13a21.51,21.51,0,0,0,2.79-19.86c-4-11.48-17.38-13.65-17.38-13.65H93S80.26,284.43,89,296.84Z" style="fill:#263238;stroke:#263238;stroke-linecap:round;stroke-linejoin:round;stroke-width:1.1326043605804443px"></path><path d="M200.54,365.41c-5.17-16-12.7-28.21-10.82-46.07.8-7.55,4-14.89,4.29-22.46.69-20.72-25.13-20.52-31.55-38.18-5.64-15.51-6.11-22.09-17.39-22.56s-49.36-4.7-58.29-2.35-15.52,24-23,33.37-16.45,22.57-10.34,40S68,347.54,68.91,367.29s.94,38.54.94,38.54H204.77S205.71,381.39,200.54,365.41Zm-58.76-55H106.05a12.7,12.7,0,0,1,0-25.39h35.73a12.7,12.7,0,0,1,0,25.39Z" style="fill:#90CAF9;stroke:#263238;stroke-linecap:round;stroke-linejoin:round;stroke-width:1.1326043605804443px"></path><path d="M68.85,259.06c8.7,4.54,21.42,13.43,29,29a12.63,12.63,0,0,1,8.21-3.05h35.73a12.62,12.62,0,0,1,9.3,4.11l.27.18c4-6.85,9.75-15.62,16.27-22.52a22.77,22.77,0,0,1-5.16-8.09c-5.64-15.51-6.11-22.09-17.39-22.56s-49.36-4.7-58.29-2.35C79.91,235.59,74.43,248.79,68.85,259.06Z" style="fill:#263238;stroke:#263238;stroke-linecap:round;stroke-linejoin:round;stroke-width:1.1326043605804443px"></path><path d="M93.53,406.3h98.68c-.71-8.93-2.44-30-3.9-42.3-1.88-16-2.82-26.33-7.52-31S146.48,306.18,138,305.24c0,0-24.45-1.88-32-.47s-23,25.85-23,30.08C83,338.86,94,380,93.53,406.3Z" style="fill:#263238;stroke:#263238;stroke-linecap:round;stroke-linejoin:round;stroke-width:1.1326043605804443px"></path><path d="M74.08,363.06c-1.41-19.75-16.45-65.34-19.74-72.86a12.75,12.75,0,0,1-.35-7.43,33.19,33.19,0,0,0-.59,24.35c6.11,17.39,14.57,40.42,15.51,60.17s.94,38.54.94,38.54h3.91C74.17,396,75.25,379.39,74.08,363.06Z" style="fill:#263238;stroke:#263238;stroke-linecap:round;stroke-linejoin:round;stroke-width:1.1326043605804443px"></path><path d="M156.35,333.91c-5.64-8.93-24-4.7-38.55-5.17s-16,3.76-16,11.75c0,6.79,7.13,51.93,9.27,65.34H171C171,379.58,161.73,342.43,156.35,333.91Z" style="fill:#90CAF9;stroke:#263238;stroke-linecap:round;stroke-linejoin:round;stroke-width:1.1326043605804443px"></path><path d="M137.21,328.17c-6.1.12-12.76.73-18.81.59,2.57,8.32,12.62,42.84,13.49,77.07h18.88C149.8,390.21,146.68,355.9,137.21,328.17Z" style="fill:#fff;stroke:#263238;stroke-linecap:round;stroke-linejoin:round;stroke-width:1.1326043605804443px"></path></g><g id="freepik--Posters--inject-9"><rect x="153.01" y="80.51" width="107.64" height="140.09" transform="translate(11.15 -14.23) rotate(4.05)" style="fill:#90CAF9"></rect><rect x="136.78" y="96.74" width="140.09" height="107.64" transform="translate(42.04 346.24) rotate(-85.95)" style="fill:#fff;opacity:0.5"></rect><path d="M236.87,185.22,172.44,180a3.49,3.49,0,0,1-3.2-3.76L174,116.42a3.49,3.49,0,0,1,3.75-3.2l64.43,5.19a3.49,3.49,0,0,1,3.2,3.75L240.63,182A3.49,3.49,0,0,1,236.87,185.22Z" style="fill:#fff"></path><path d="M209.63,154.74a3.07,3.07,0,1,1,2.21,2.6A3.08,3.08,0,0,1,209.63,154.74Z" style="opacity:0.08"></path><path d="M198.54,153.86a3.07,3.07,0,1,1,2.2,2.59A3.06,3.06,0,0,1,198.54,153.86Z" style="opacity:0.08"></path><path d="M177.57,163.52a5.85,5.85,0,1,1,4.21,4.94A5.86,5.86,0,0,1,177.57,163.52Z" style="opacity:0.08"></path><path d="M222.62,167.23a5.84,5.84,0,1,1,4.21,4.94A5.86,5.86,0,0,1,222.62,167.23Z" style="opacity:0.08"></path><polygon points="213.41 167.94 208.42 167.54 208.82 162.54 204 162.16 203.6 167.15 198.6 166.75 198.22 171.57 203.21 171.97 202.81 176.97 207.63 177.35 208.03 172.36 213.03 172.76 213.41 167.94" style="opacity:0.08"></polygon><path d="M234.18,148.61l-53.26-4.38a1.9,1.9,0,0,1-1.75-2l1.7-20.66a1.91,1.91,0,0,1,2-1.76l53.26,4.39a1.89,1.89,0,0,1,1.75,2L236.14,147A1.82,1.82,0,0,1,234.18,148.61Z" style="opacity:0.08"></path><path d="M163.44,84.63l-9.07,125.11,96.12,7,9.07-125.1Zm83.06,126-87.32-6.33,8.24-113.65L254.75,97Z" style="fill:#fff;opacity:0.7000000000000001"></path><rect x="325.53" y="117.08" width="107.64" height="140.09" transform="translate(-17.15 39.78) rotate(-5.87)" style="fill:#90CAF9"></rect><rect x="325.53" y="117.08" width="107.64" height="140.09" transform="translate(-17.15 39.78) rotate(-5.87)" style="fill:#fff;opacity:0.5"></rect><rect x="343.68" y="137.01" width="70.5" height="99.24" rx="3.52" transform="translate(-16.96 39.36) rotate(-5.82)" style="fill:#fff"></rect><path d="M383.35,199.12a3.5,3.5,0,1,1,3,2.46A3.52,3.52,0,0,1,383.35,199.12Z" style="opacity:0.08"></path><path d="M370.7,200.41a3.5,3.5,0,1,1,3,2.46A3.51,3.51,0,0,1,370.7,200.41Z" style="opacity:0.08"></path><path d="M377.81,207.47a3.5,3.5,0,1,1,3,2.46A3.5,3.5,0,0,1,377.81,207.47Z" style="opacity:0.08"></path><polygon points="411.33 208.85 405.64 209.43 405.06 203.73 399.56 204.29 400.14 209.99 394.44 210.57 395 216.07 400.7 215.49 401.28 221.19 406.78 220.63 406.2 214.93 411.9 214.35 411.33 208.85" style="opacity:0.08"></polygon><polygon points="369.74 213.09 364.04 213.67 363.46 207.98 357.96 208.54 358.54 214.23 352.84 214.81 353.4 220.31 359.1 219.73 359.68 225.43 365.18 224.87 364.6 219.17 370.3 218.59 369.74 213.09" style="opacity:0.08"></polygon><rect x="350.08" y="144.3" width="53.89" height="47.15" rx="1.83" transform="translate(-15.07 39.07) rotate(-5.82)" style="opacity:0.08"></rect><rect x="376.17" y="221.67" width="13.86" height="7.61" transform="translate(-20.9 40.02) rotate(-5.82)" style="opacity:0.08"></rect></g><g id="freepik--Character--inject-9"><path d="M224.19,319.58s4.33,1.93,8.66,9.63,65.33,42.33,66.3,52,4.26,11.12-8.26,13-30.11-11-51.3-22.6S208.3,361,208.3,361Z" style="fill:#fff;stroke:#263238;stroke-linecap:round;stroke-linejoin:round;stroke-width:1.1326043605804443px"></path><path d="M286.54,370.74s-13.48,1.74-18.26,7.39,2.59,14.48,7.16,16.15,18.49.37,22.4-7,.87-9.13-4.35-13" style="fill:#fff;stroke:#263238;stroke-linecap:round;stroke-linejoin:round;stroke-width:1.1326043605804443px"></path><path d="M275.33,383.28s-5,3.79-6.15,4.85-2.84,5.68-4,6.5-5.44,1.54-5.92,2.72,3.79,2.49,7.1,2.37,5.91-4,9.1-5.44a19.84,19.84,0,0,1,6.51-1.54s2.95-6.5,1.77-9.1S278,381.39,275.33,383.28Z" style="fill:#fff;stroke:#263238;stroke-linecap:round;stroke-linejoin:round;stroke-width:1.1326043605804443px"></path><path d="M287.19,376.3a9,9,0,0,0-3.19,0,55.93,55.93,0,0,0-7.58,1.62c-1.23.62-3.13,8.43-4.05,12.12s-4.57,10.34-3,10.65,5.44,1.18,6.1-1.19c1.07-3.78,3.44-10.81,3.44-10.81s-1.85,6.77-.93,8,15.69.92,17.54.3,6.15-8.61,6.46-12.92C302.21,380.4,291.84,377.19,287.19,376.3Z" style="fill:#fff;stroke:#263238;stroke-linecap:round;stroke-linejoin:round;stroke-width:1.1326043605804443px"></path><line x1="284.31" y1="397.23" x2="288.1" y2="382.45" style="fill:none;stroke:#263238;stroke-linecap:round;stroke-linejoin:round;stroke-width:1.1326043605804443px"></line><line x1="292.35" y1="397" x2="295.9" y2="383.05" style="fill:none;stroke:#263238;stroke-linecap:round;stroke-linejoin:round;stroke-width:1.1326043605804443px"></line><line x1="278.88" y1="388.67" x2="280.76" y2="381.98" style="fill:none;stroke:#263238;stroke-linecap:round;stroke-linejoin:round;stroke-width:1.1326043605804443px"></line><path d="M250.67,339.8c-14.9-13.24-31.65-31.15-50.95-37.58a40,40,0,0,1-13.6-7.55s-13.57-9.62-22.16-10.09c-9.83-.55-17.42,9.85-22,17.31-20.36,33.27-23,71.75-23.78,110H208.3s-5.24-8.11.48-31.47a97.44,97.44,0,0,1,4.16-13.05c1.67.72,3.51,1.49,5.47,2.3,8.18,3.37,27,14,27,14l21.17-30.71S255,343.66,250.67,339.8Z" style="fill:#fff;stroke:#263238;stroke-linecap:round;stroke-linejoin:round;stroke-width:1.1326043605804443px"></path><path d="M168.46,290.86c-2.64-4.71-8.38-9.56-17.37-4.38-11.64,6.7-46.25,75.81-48.63,86.3S148.7,390,167.77,390a347.16,347.16,0,0,0,35.35-1.87l3.75,2.34s0,9.06,3.34,10,13.83,1,17.16-.95,2.39-7.15,2.39-7.15,2.38,10.49,6.19,11.44a8.15,8.15,0,0,0,3.86.06,1.78,1.78,0,0,0,.91-2.92l-1-1.19-6.59-14.54s-1.82-7.86-4.2-7.86-21.54-.25-21.54-.25-32.42-3.81-46.25-7.63S140,360.33,140,360.33l26.52-43.26" style="fill:#fff"></path><g style="clip-path:url(#freepik--clip-path--inject-9)"><path d="M202.28,384.11c-7.16-.84-29.08-.42-57.33-4.22s-35-10.54-29.51-12.22,24-5.48,25.3-5.48-23.61-4.64-23.61-4.64l13.41-42.41c-13,22.63-26.62,51.2-28.08,57.64C100.07,383.27,148.7,390,167.77,390a347.16,347.16,0,0,0,35.35-1.87l3.75,2.34s0,9.06,3.34,10a16.54,16.54,0,0,0,3,.47,7.66,7.66,0,0,0,2.6-4.57C216.52,391.87,209.45,385,202.28,384.11Z" style="fill:#90CAF9"></path><path d="M202.28,384.11c-7.16-.84-29.08-.42-57.33-4.22s-35-10.54-29.51-12.22,24-5.48,25.3-5.48-23.61-4.64-23.61-4.64l13.41-42.41c-13,22.63-26.62,51.2-28.08,57.64C100.07,383.27,148.7,390,167.77,390a347.16,347.16,0,0,0,35.35-1.87l3.75,2.34s0,9.06,3.34,10a16.54,16.54,0,0,0,3,.47,7.66,7.66,0,0,0,2.6-4.57C216.52,391.87,209.45,385,202.28,384.11Z" style="fill:#fff;opacity:0.5"></path></g><path d="M168.46,290.86c-2.64-4.71-8.38-9.56-17.37-4.38-11.64,6.7-46.25,75.81-48.63,86.3S148.7,390,167.77,390a347.16,347.16,0,0,0,35.35-1.87l3.75,2.34s0,9.06,3.34,10,13.83,1,17.16-.95,2.39-7.15,2.39-7.15,2.38,10.49,6.19,11.44a8.15,8.15,0,0,0,3.86.06,1.78,1.78,0,0,0,.91-2.92l-1-1.19-6.59-14.54s-1.82-7.86-4.2-7.86-21.54-.25-21.54-.25-32.42-3.81-46.25-7.63S140,360.33,140,360.33l26.52-43.26" style="fill:none;stroke:#263238;stroke-linecap:round;stroke-linejoin:round;stroke-width:1.1326043605804443px"></path><path d="M222.23,385.06s3.54,10.38,3.54,12.08a8.79,8.79,0,0,1-.85,3.4" style="fill:none;stroke:#263238;stroke-linecap:round;stroke-linejoin:round;stroke-width:1.1326043605804443px"></path><path d="M216.15,386.66s3.39,9.63,3.68,11.61a3,3,0,0,1-.85,2.83" style="fill:none;stroke:#263238;stroke-linecap:round;stroke-linejoin:round;stroke-width:1.1326043605804443px"></path><line x1="229.76" y1="392.33" x2="227.47" y2="383.55" style="fill:none;stroke:#263238;stroke-linecap:round;stroke-linejoin:round;stroke-width:1.1326043605804443px"></line><path d="M206.87,390.42l4.74,1.62s2.84,1.42.57,3.4" style="fill:#fff;stroke:#263238;stroke-linecap:round;stroke-linejoin:round;stroke-width:1.1326043605804443px"></path><path d="M170.27,292.09s-2.54-8.5-12.74-8.78S140,294.92,135.16,302s-17.55,34.54-19,37.94-9.62,18.12-9.62,18.12,4.24,4,14.44,4h22.37s.84-.29,1.41-2.83a19.16,19.16,0,0,0,.57-3.4l25.48-42.19" style="fill:#fff;stroke:#263238;stroke-linecap:round;stroke-linejoin:round;stroke-width:1.1326043605804443px"></path><line x1="239.83" y1="390.53" x2="241.85" y2="395.59" style="fill:none;stroke:#263238;stroke-linecap:round;stroke-linejoin:round;stroke-width:1.1326043605804443px"></line><line x1="241.35" y1="386.99" x2="243.88" y2="393.06" style="fill:none;stroke:#263238;stroke-linecap:round;stroke-linejoin:round;stroke-width:1.1326043605804443px"></line><polyline points="223.94 346.39 212.94 367.36 230.03 352.05" style="fill:none;stroke:#263238;stroke-linecap:round;stroke-linejoin:round;stroke-width:1.1326043605804443px"></polyline><path d="M199.72,302.22a40,40,0,0,1-13.6-7.55s-2.24-1.59-5.47-3.5c1.79,8.77,7.26,34,11.56,38.27,4.13,4.13,12.88-13.52,16.36-23.44A61,61,0,0,0,199.72,302.22Z" style="fill:#fff;stroke:#263238;stroke-linecap:round;stroke-linejoin:round;stroke-width:1.1326043605804443px"></path><ellipse cx="227.11" cy="270.37" rx="12.09" ry="15.5" style="fill:#fff;stroke:#263238;stroke-linecap:round;stroke-linejoin:round;stroke-width:1.1326043605804443px"></ellipse><path d="M186.7,266.9s-1.74,19.67-.58,27.77,5.78,33.55,9.25,26.61S211,291.78,211,291.78,190.17,276.16,186.7,266.9Z" style="fill:#fff"></path><g style="clip-path:url(#freepik--clip-path-2--inject-9)"><path d="M186.7,266.9s-1.74,19.67-.58,27.77c.45,3.2,1.46,9.11,2.71,14.66l14.3-7.84,6-6.3,1.83-3.41S190.17,276.16,186.7,266.9Z" style="fill:#90CAF9"></path><path d="M186.7,266.9s-1.74,19.67-.58,27.77c.45,3.2,1.46,9.11,2.71,14.66l14.3-7.84,6-6.3,1.83-3.41S190.17,276.16,186.7,266.9Z" style="fill:#fff;opacity:0.5"></path></g><path d="M186.7,266.9s-1.74,19.67-.58,27.77,5.78,33.55,9.25,26.61S211,291.78,211,291.78,190.17,276.16,186.7,266.9Z" style="fill:none;stroke:#263238;stroke-linecap:round;stroke-linejoin:round;stroke-width:1.1326043605804443px"></path><path d="M183.22,263.43s-4-24.3-.57-33.56,16.2-13.88,31.24-9.25,23.72,9.25,26,19.67-5.78,16.78-5.78,16.78-6.95-16.2-15-17.94-15.62-2.31-14.46,3.47,1.74,13.31-1.73,16.2-4.05,4.05-5.79,8.68-6.94,9.26-11,4S183.22,263.43,183.22,263.43Z" style="fill:#263238;stroke:#263238;stroke-linecap:round;stroke-linejoin:round;stroke-width:1.1326043605804443px"></path><path d="M187.27,265.16s-1.15-7.52-6.36-4.62,2.31,13.88,2.31,13.88a42.06,42.06,0,0,0,8.68,21.41C200,306.24,214,307.65,222,301c9-7.48,13.3-41.65,13.3-41.65s3.47-4.63-4-16.2-33-11.57-34.71-6.94,5.21,13.88,3.47,17.35-6.94-.57-8.1,5.79S189.59,270.37,187.27,265.16Z" style="fill:#fff"></path><g style="clip-path:url(#freepik--clip-path-3--inject-9)"><path d="M231.24,243.18c-7.52-11.57-33-11.57-34.71-6.94s5.21,13.88,3.47,17.35-6.94-.57-8.1,5.79-2.31,11-4.63,5.78c0,0-1.15-7.52-6.36-4.62s2.31,13.88,2.31,13.88a42.06,42.06,0,0,0,8.68,21.41,23.09,23.09,0,0,0,21.07,9,29,29,0,0,1-9.84-3.38c-8-4.64-10.12-13.49-7.59-23.19s8.43-33.3,11.4-35.7,5-.55,11.36,5.35,9.7,5.48,9.7,5.48l6.51-4.21A38.77,38.77,0,0,0,231.24,243.18Z" style="fill:#90CAF9"></path><path d="M231.24,243.18c-7.52-11.57-33-11.57-34.71-6.94s5.21,13.88,3.47,17.35-6.94-.57-8.1,5.79-2.31,11-4.63,5.78c0,0-1.15-7.52-6.36-4.62s2.31,13.88,2.31,13.88a42.06,42.06,0,0,0,8.68,21.41,23.09,23.09,0,0,0,21.07,9,29,29,0,0,1-9.84-3.38c-8-4.64-10.12-13.49-7.59-23.19s8.43-33.3,11.4-35.7,5-.55,11.36,5.35,9.7,5.48,9.7,5.48l6.51-4.21A38.77,38.77,0,0,0,231.24,243.18Z" style="fill:#fff;opacity:0.5"></path></g><path d="M187.27,265.16s-1.15-7.52-6.36-4.62,2.31,13.88,2.31,13.88a42.06,42.06,0,0,0,8.68,21.41C200,306.24,214,307.65,222,301c9-7.48,13.3-41.65,13.3-41.65s3.47-4.63-4-16.2-33-11.57-34.71-6.94,5.21,13.88,3.47,17.35-6.94-.57-8.1,5.79S189.59,270.37,187.27,265.16Z" style="fill:none;stroke:#263238;stroke-linecap:round;stroke-linejoin:round;stroke-width:1.1326043605804443px"></path><path d="M209.39,285.18c-7.31-1.59-8.9-7-8.9-7" style="fill:none;stroke:#263238;stroke-linecap:round;stroke-linejoin:round;stroke-width:1.1326043605804443px"></path><path d="M211.3,269.92c-3.5-3.49-6.68-3.81-6.68-3.81" style="fill:none;stroke:#263238;stroke-linecap:round;stroke-linejoin:round;stroke-width:1.1326043605804443px"></path><line x1="202.4" y1="277.55" x2="197.94" y2="278.51" style="fill:none;stroke:#263238;stroke-linecap:round;stroke-linejoin:round;stroke-width:1.1326043605804443px"></line><path d="M200.49,278.19a8.69,8.69,0,0,0-1.59,6.68c.59,3.94,5.06,4.91,5.06,4.91s.34-5.23,2.89-4.91C206.85,284.87,201.76,282,200.49,278.19Z" style="fill:none;stroke:#263238;stroke-linecap:round;stroke-linejoin:round;stroke-width:1.1326043605804443px"></path><path d="M200,278.42s-.69,6.61,4,8.35" style="fill:none;stroke:#263238;stroke-linecap:round;stroke-linejoin:round;stroke-width:0.5663021802902222px"></path><path d="M225.51,260.47s-4.82,4.82-4.82,10.07,4.82,8.76.88,10.08-5.26.43-5.26.43" style="fill:none;stroke:#263238;stroke-linecap:round;stroke-linejoin:round;stroke-width:1.1326043605804443px"></path><path d="M211.2,266.05c-.41,1.62-1,.9-1.81.69s-1.59.18-1.18-1.44,1.41-2.78,2.23-2.57S211.6,264.42,211.2,266.05Z" style="fill:#263238"></path><path d="M227.84,268.67c-.41,1.63-1.41,2.78-2.23,2.57s-1.17-1.69-.76-3.32,1.41-2.77,2.23-2.57S228.25,267.05,227.84,268.67Z" style="fill:#263238"></path><path d="M204.93,255.22s6.07-1.88,11.91,6.08" style="fill:none;stroke:#263238;stroke-linecap:round;stroke-linejoin:round;stroke-width:1.1326043605804443px"></path><path d="M227.26,259.16s4.38-1.75,5.26,2.63" style="fill:none;stroke:#263238;stroke-linecap:round;stroke-linejoin:round;stroke-width:1.1326043605804443px"></path><path d="M196.53,236.24s2.89,5.2,10.41,6.36,16.78,0,18.52,6.37,9.83,13.88,19.09,9.83,10.41-22,4.63-29.5-12.73-6.37-19.67-9.26-6.94-8.1-17.36-8.1-22.56,9.83-15.62,15.62" style="fill:#263238;stroke:#263238;stroke-linecap:round;stroke-linejoin:round;stroke-width:1.1326043605804443px"></path><ellipse cx="184.49" cy="264.37" rx="12.09" ry="15.5" style="fill:#fff;stroke:#263238;stroke-linecap:round;stroke-linejoin:round;stroke-width:1.1326043605804443px"></ellipse><ellipse cx="182.59" cy="264.44" rx="8.72" ry="11.19" style="fill:#263238;stroke:#263238;stroke-linecap:round;stroke-linejoin:round;stroke-width:1.1326043605804443px"></ellipse><path d="M180.91,262.8a2.25,2.25,0,0,1-2.24-1.95,70,70,0,0,1,.05-16,2.26,2.26,0,1,1,4.5.52,67.54,67.54,0,0,0-.07,14.89,2.25,2.25,0,0,1-1.93,2.55A1.67,1.67,0,0,1,180.91,262.8Z" style="fill:#fff;stroke:#263238;stroke-linecap:round;stroke-linejoin:round;stroke-width:1.1326043605804443px"></path><path d="M227,218.83l0,0a17.18,17.18,0,0,0,2.43,1.25c4.18,1.74,8.37,2,12.3,3.61a3.91,3.91,0,0,0-.56-1.46c-5.49-8.71-21.53-22.42-42.94-12C186.32,216,179,227.9,177,244.62a4,4,0,0,0,3.48,4.4l.47,0a4,4,0,0,0,3.93-3.51c1.12-9.69,5-22.45,16.86-28.23C212.84,211.92,221.43,214.89,227,218.83Z" style="fill:#fff;stroke:#263238;stroke-linecap:round;stroke-linejoin:round;stroke-width:1.1326043605804443px"></path></g><g id="freepik--Device--inject-9"><rect x="182.96" y="401.55" width="140.5" height="5.67" style="fill:#fff;stroke:#263238;stroke-linecap:round;stroke-linejoin:round;stroke-width:1.1326043605804443px"></rect><rect x="222.57" y="401.55" width="140.5" height="5.67" style="fill:#fff;stroke:#263238;stroke-linecap:round;stroke-linejoin:round;stroke-width:1.1326043605804443px"></rect><path d="M139,392.4h20.74a8.63,8.63,0,0,1,8.63,8.63V411.4a0,0,0,0,1,0,0h-38a0,0,0,0,1,0,0V401A8.63,8.63,0,0,1,139,392.4Z" style="fill:#90CAF9;stroke:#263238;stroke-linecap:round;stroke-linejoin:round;stroke-width:1.1326043605804443px"></path><path d="M140,396.75h8.8a8.63,8.63,0,0,1,8.63,8.63v10.37a0,0,0,0,1,0,0H131.42a0,0,0,0,1,0,0V405.37A8.63,8.63,0,0,1,140,396.75Z" style="fill:#263238;stroke:#263238;stroke-linecap:round;stroke-linejoin:round;stroke-width:1.1326043605804443px"></path><path d="M140,399.46h5.55a8.63,8.63,0,0,1,8.63,8.63v3.86a0,0,0,0,1,0,0h-22.8a0,0,0,0,1,0,0v-3.86A8.63,8.63,0,0,1,140,399.46Z" style="fill:#90CAF9;stroke:#263238;stroke-linecap:round;stroke-linejoin:round;stroke-width:1.1326043605804443px"></path><rect x="267.17" y="285.84" width="129.76" height="99.06" style="fill:#fff;stroke:#263238;stroke-linecap:round;stroke-linejoin:round;stroke-width:1.1326043605804443px"></rect><rect x="272.53" y="285.84" width="129.76" height="99.06" style="fill:#263238;stroke:#263238;stroke-linecap:round;stroke-linejoin:round;stroke-width:1.1326043605804443px"></rect><rect x="324.5" y="349.89" width="30.24" height="57.32" style="fill:#fff;stroke:#263238;stroke-linecap:round;stroke-linejoin:round;stroke-width:1.1326043605804443px"></rect><rect x="57.84" y="405.33" width="402.12" height="10.59" style="fill:#fff;stroke:#263238;stroke-linecap:round;stroke-linejoin:round;stroke-width:1.1326043605804443px"></rect><rect x="197.17" y="405.33" width="262.79" height="10.59" style="fill:#263238;stroke:#263238;stroke-linecap:round;stroke-linejoin:round;stroke-width:1.1326043605804443px"></rect></g></svg>
